<?xml version="1.0" encoding="UTF-8"?>
<svg width="800px" height="800px" version="1.1" viewBox="0 0 1e3 1e3" xml:space="preserve" xmlns="http://www.w3.org/2000/svg"><path d="m562.23 418.48c7.18 0 14.3 1.16 21.14 3.45 6.87 2.3 13.25 5.66 18.98 9.98 4.27 3.22 9.21 5.32 14.45 6.17l32.29-53.3h25.68c4.26 0 7.72-3.45 7.72-7.72 0-4.26-3.46-7.71-7.72-7.71h-62.15c-1.17 0-2.28 0.27-3.28 0.74-2.73 0.73-5.31 1.98-7.57 3.73l-14.21 10.96h-24.03c-4.27 0-7.72 3.46-7.72 7.72s3.45 7.72 7.72 7.72h4.03l-23.66 18.26h18.33z" fill="#ac131d"/><path d="m802.16 498.09h40.597c0.662 1.382 1.298 2.79 1.9 4.214 2.196 5.189 3.255 10.649 3.255 16.059 0 11.133-4.51 22.062-12.947 30.015-3.824 3.612-8.275 6.427-13.075 8.335-4.808 1.908-9.971 2.917-15.236 2.917h-301.73l-33.315 25.708h26.763c4.263 0 7.719 3.456 7.719 7.719s-3.456 7.719-7.719 7.719h-46.768l-12.959 10h13.753c4.263 0 7.718 3.456 7.718 7.719s-3.456 7.719-7.718 7.719h-33.758l-36.577 28.225c-7.631 5.888-16.998 9.082-26.636 9.082h-74.072c-4.263 0-7.718-3.456-7.718-7.719s3.456-7.719 7.718-7.719h47.419l58.106-95.922-164.36-20.129c-33.254-4.078-58.25-32.313-58.25-65.822l-11.082-118.05-1e-3 -0.012c-0.69-1.156-1.093-2.502-1.093-3.945 0-0.933 0.173-1.822 0.477-2.65l-1e-3 -0.015v-9e-3l-0.475-5.045h69.863c4.263 0 7.719 3.456 7.719 7.719s-3.456 7.719-7.719 7.719h-30.616l2e-3 3e-3 42.089 86.46c8.089 14.524 23.715 23.19 40.317 22.368l106.76-5.333c9.921-0.492 19.468-3.951 27.396-9.937 4.299-3.247 9.081-5.74 14.118-7.428 5.053-1.687 10.361-2.569 15.754-2.569h279.59c26.098 0 51.934 5.248 75.963 15.432 5.401 2.289 10.547 5.045 15.381 8.233h-24.131c-5.901 0-10.683 4.782-10.683 10.684 0 7.809 3.163 14.872 8.275 19.985 5.121 5.109 12.184 8.272 19.993 8.272zm-312.03-28.261c0-5.901-4.782-10.684-10.684-10.684h-8.648c-5.902 0-10.684 4.782-10.684 10.684v17.577c0 5.901 4.782 10.683 10.684 10.683h8.648c5.901 0 10.684-4.782 10.684-10.683zm50.593 0c0-5.901-4.782-10.684-10.683-10.684h-8.648c-5.901 0-10.684 4.782-10.684 10.684v17.577c0 5.901 4.782 10.683 10.684 10.683h8.648c5.901 0 10.683-4.782 10.683-10.683zm50.594 0c0-5.901-4.782-10.684-10.684-10.684h-8.648c-5.901 0-10.684 4.782-10.684 10.684v17.577c0 5.901 4.782 10.683 10.684 10.683h8.648c5.902 0 10.684-4.782 10.684-10.683zm50.585 0c0-5.901-4.782-10.684-10.684-10.684h-8.648c-5.902 0-10.684 4.782-10.684 10.684v17.577c0 5.901 4.782 10.683 10.684 10.683h8.648c5.901 0 10.684-4.782 10.684-10.683zm50.594 0c0-5.901-4.782-10.684-10.684-10.684h-8.648c-5.901 0-10.683 4.782-10.683 10.684v17.577c0 5.901 4.782 10.683 10.683 10.683h8.648c5.901 0 10.684-4.782 10.684-10.683z" fill="#ac131d"/></svg>
