<?xml version="1.0" encoding="UTF-8"?>
<svg width="800px" height="800px" version="1.1" viewBox="0 0 1e3 1e3" xml:space="preserve" xmlns="http://www.w3.org/2000/svg"><path d="m753.64 581.5c6.53 0 11.83 5.3 11.83 11.84 0 1.92-0.46 3.73-1.27 5.33-1.95 3.85-5.95 6.5-10.56 6.5-4.62 0-8.62-2.65-10.57-6.5-0.81-1.6-1.26-3.41-1.26-5.33 0-6.54 5.29-11.84 11.83-11.84z" fill="#285894"/><path d="m248.16 581.5c6.54 0 11.84 5.3 11.84 11.84 0 1.92-0.45 3.73-1.27 5.33-1.95 3.85-5.95 6.5-10.57 6.5-4.61 0-8.61-2.65-10.56-6.5-0.81-1.6-1.27-3.41-1.27-5.33 0-6.54 5.3-11.84 11.83-11.84z" fill="#285894"/><path d="m847.76 578.38c0 11.21-9.08 20.29-20.28 20.29h-20.1c-2.68 27.32-25.72 48.67-53.74 48.67s-51.06-21.35-53.74-48.67h-398c-2.68 27.32-25.71 48.67-53.74 48.67-28.02 0-51.06-21.35-53.74-48.67h-21.9c-11.21 0-20.29-9.08-20.29-20.29v-205.42c0-11.21 9.08-20.29 20.29-20.29h563.32c6 0 11.94 0.79 17.67 2.33 3.033 0.814 6.009 1.843 8.908 3.071l61.422 1.142c0.633-2.322 2.406-4.2 4.751-4.931 3.056-0.953 6.372 0.248 8.109 2.936l4.649 7.195c0.94 1.455 1.318 3.202 1.064 4.915l-3.453 23.261c-0.519 3.494-3.518 6.081-7.051 6.081h-4.56c-4.246 0-7.551-3.689-7.085-7.911l2.137-19.339h-39.638c7.95 7.555 14.029 16.967 17.608 27.5l44.95 142.55c1.62 4.77 2.44 9.77 2.44 14.8v22.11zm-122.62 20.29c2.5 13.45 14.33 23.67 28.5 23.67s26-10.22 28.5-23.67c0.33-1.73 0.5-3.51 0.5-5.33 0-15.99-13.01-29-29-29s-29 13.01-29 29c0 1.82 0.17 3.6 0.5 5.33zm-427.03-82.454c0.782 0 1.485 0.435 1.835 1.135l19.172 38.413c3.246 6.504 9.777 10.544 17.045 10.544h296.72c6.368 0 12.286-3.159 15.829-8.45 3.543-5.292 4.211-11.967 1.786-17.855-0.344-0.837-0.085-1.508 0.192-1.923 0.278-0.414 0.799-0.909 1.704-0.909h72.244c4.694 0 8.5-3.806 8.5-8.5s-3.806-8.5-8.5-8.5h-72.244c-6.369 0-12.286 3.159-15.83 8.45-3.543 5.292-4.211 11.967-1.786 17.855 0.344 0.838 0.085 1.508-0.193 1.923s-0.799 0.91-1.704 0.91h-296.72c-0.782 0-1.485-0.435-1.834-1.136l-19.172-38.413c-3.246-6.503-9.777-10.543-17.046-10.543h-69.454c-4.694 0-8.5 3.806-8.5 8.5s3.806 8.5 8.5 8.5h69.456zm-78.454 82.454c2.5 13.45 14.33 23.67 28.5 23.67 14.18 0 26-10.22 28.5-23.67 0.33-1.73 0.5-3.51 0.5-5.33 0-15.99-13-29-29-29-15.99 0-29 13.01-29 29 0 1.82 0.17 3.6 0.5 5.33zm-50.392-90.954c-3.59 0-6.5 5.891-6.5 13.158s2.91 13.158 6.5 13.158 6.5-5.891 6.5-13.158-2.91-13.158-6.5-13.158zm0 36.933c-3.59 0-6.5 5.891-6.5 13.158s2.91 13.157 6.5 13.157 6.5-5.891 6.5-13.157-2.91-13.158-6.5-13.158zm483.39-74.284-22.936-86.727c-0.93-3.518-4.113-5.968-7.751-5.968h-431.81c-4.428 0-8.017 3.589-8.017 8.018v54.042c0 1.898 0.674 3.735 1.901 5.184l27.698 32.685c1.523 1.797 3.76 2.834 6.117 2.834h427.05c5.261-1e-3 9.096-4.982 7.751-10.068zm145.12 3.442-21.151-67.076c-3.393-9.808-10.192-18.06-19.168-23.257-3.268-1.896-6.768-3.349-10.42-4.328-3.648-0.98-7.41-1.477-11.191-1.477h-74.029c-3.305 0-5.734 3.098-4.947 6.308l13.863 56.479c2.492 10.151 11.34 17.403 21.681 17.944 7.942 0.415 15.426 3.831 20.544 9.918l1.587 1.887c5.452 6.484 13.491 10.227 21.963 10.227h56.41c3.442 0 5.893-3.342 4.858-6.625zm35.95 83.872-0.84-7.284c-0.288-2.496-2.108-4.546-4.553-5.127l-22.959-5.459c-4.147-0.986-7.963 2.565-7.278 6.772l1.387 8.52c0.404 2.482 2.319 4.445 4.79 4.911l22.412 4.222c3.957 0.746 7.502-2.556 7.041-6.555z" fill="#285894"/></svg>
