<?xml version="1.0" encoding="UTF-8"?>
<svg width="800px" height="800px" version="1.1" viewBox="0 0 1e3 1e3" xml:space="preserve" xmlns="http://www.w3.org/2000/svg"><path d="m210.63 376.22c7.82-7.56 17.27-12.5 27.33-14.36 0.379-0.07 0.758-0.14 1.136-0.21 4.398-0.807 7.594-4.632 7.594-9.103 0-4.108 3.33-7.438 7.438-7.438 5.686 0 11.352 0.699 16.868 2.08l23.279 5.828c144.53-18.666 240.26 0.539 271.22 8.443 6.39 1.63 12.64 3.88 18.71 6.71l110.95 51.74c6.83 3.18 13.89 5.62 21.11 7.3l49.27 11.41c36.59 8.47 66.88 38.14 80.27 78.61l2.42 39.41c1.57 25.72-15.95 47.59-38.14 47.59h-22.23c-8.97 29.34-36.26 50.67-68.54 50.67-32.27 0-59.56-21.33-68.53-50.67h-311.76c-8.97 29.34-36.26 50.67-68.53 50.67s-59.56-21.33-68.54-50.67h-10.19c-19.55 0-35.96-17.141-38.02-39.74-2.98-32.78-4.22-79.06 7.1-111.82 12.509-36.2 35.259-62.431 49.79-76.45zm603.39 177.09c4.97 0 9-6.561 9-14.66 0-8.101-4.03-14.67-9-14.67s-9 6.569-9 14.67c0 8.099 4.029 14.66 9 14.66zm-11.26-45.241c5.67 1.56 10.5-4.271 7.97-9.58-4.68-9.82-13.02-22.54-26.37-28.26-16.39-7.02-29.83-4.181-36.37-1.87-2.83 1.01-4.69 3.76-4.51 6.76 0.33 5.65 2.76 14.71 14.21 19.11 11.06 4.26 31.64 10.14 45.07 13.84zm-125.11 96.161c7.7 15.22 23.48 25.67 41.66 25.67 18.19 0 33.97-10.45 41.67-25.67 3.2-6.311 5-13.45 5-21 0-25.73-20.93-46.67-46.67-46.67-25.73 0-46.66 20.939-46.66 46.67 0 7.549 1.8 14.689 5 21zm-71.241-166.27c1.19 2.9 3.99 4.77 7.13 4.77h71.41c-0.12-0.061-0.24-0.11-0.36-0.16l-94.47-44.05zm-132.22 45.441h27.67c4.69 0 8.5-3.811 8.5-8.5 0-2.351-0.95-4.47-2.49-6.01s-3.66-2.49-6.01-2.49h-27.67c-4.69 0-8.5 3.8-8.5 8.5 0 4.689 3.81 8.5 8.5 8.5zm-15.051-43.031 82.62 1.83c2.61 0.08 4.97-1.14 6.48-3.27 1.5-2.141 1.83-4.761 0.9-7.2l-20.02-52.38c-20.06-3.48-47.74-7.051-82.17-8.53zm-89-1.96 71.67 1.58-12.21-69.71c-5.25-0.11-10.61-0.17-16.12-0.17-17.28 0-34.84 0.55-52.62 1.64 3.261 24.78 6.85 50.71 9.28 66.66zm-26.269-65.45c-14.85 1.19-29.84 2.75-44.95 4.681l-31.28 34.25c-1.66 1.819-2.35 4.25-1.88 6.67 0.47 2.41 2 4.41 4.22 5.489l24.83 11.99c1 0.49 2.07 0.75 3.18 0.771l54.9 1.21c-2.63-17.29-6.02-42.261-9.02-65.061zm-5.35 110.44c4.7 0 8.5-3.811 8.5-8.5 0-2.351-0.95-4.47-2.49-6.01s-3.66-2.49-6.01-2.49h-27.66c-4.7 0-8.5 3.8-8.5 8.5 0 4.689 3.8 8.5 8.5 8.5zm-109.7 120.83c7.7 15.22 23.48 25.67 41.67 25.67 18.18 0 33.96-10.45 41.66-25.67 3.2-6.311 5-13.45 5-21 0-25.73-20.93-46.67-46.66-46.67-25.74 0-46.67 20.939-46.67 46.67 0 7.549 1.801 14.689 5 21zm-51.72-78.541c2.45 1.74 5.77 1.62 8.12-0.25 5.43-4.33 14.96-14.21 17.68-31.83 2.22-14.37-4.15-28.17-10.01-37.34-3.16-4.96-10.66-3.96-12.34 1.68-3.98 13.36-9.88 33.92-12.13 45.56-2.33 12.051 4.071 18.91 8.68 22.18z" fill="#830377"/><path d="m719.31 556.23c14.92 0 27.01 12.09 27.01 27 0 8.479-3.91 16.05-10.04 21-4.63 3.76-10.54 6-16.97 6s-12.33-2.24-16.96-6c-6.13-4.95-10.04-12.521-10.04-21 0-14.911 12.09-27 27-27z" fill="#830377"/><path d="m270.49 556.23c14.91 0 27 12.09 27 27 0 8.479-3.91 16.05-10.04 21-4.63 3.76-10.53 6-16.96 6s-12.34-2.24-16.97-6c-6.12-4.95-10.03-12.521-10.03-21 0-14.911 12.079-27 27-27z" fill="#830377"/></svg>
