<?xml version="1.0" encoding="UTF-8"?>
<svg width="800px" height="800px" version="1.1" viewBox="0 0 1e3 1e3" xml:space="preserve" xmlns="http://www.w3.org/2000/svg"><path d="m515.14 385.57c6.631 0 12 5.37 12 12v6.56h51.941c43.26 0 85.199 10 122.91 28.47 17.01 8.32 33.17 18.37 48.199 30 23.76 18.38 44.711 40.71 61.791 66.42l27.738 41.77c5.871 8.83 8.611 19.28 7.961 29.7v0.03c0 4e-3 -2e-3 8e-3 -2e-3 0.011 0.057 0.531 0.09 1.069 0.09 1.615 0 2.06-0.416 4.022-1.168 5.809v4e-3c0 0.01 0 0.02-0.01 0.03-0.1 0.46-0.201 0.92-0.32 1.37-5.449 21.33-24.66 36.26-46.68 36.26h-524.01c-16.961 0-31.051-12.3-33.83-28.47 0-1e-3 0-2e-3 -2e-3 -3e-3h-18.027c-2.787 16.167-16.869 28.471-33.834 28.471h-37.656v-241.49h37.656c16.965 0 31.047 12.303 33.834 28.471h18.029c2.77-16.17 16.859-28.47 33.83-28.47h97.559v-6.56c0-6.63 5.381-12 12-12h57.98l-36.699-60.83h-11.541c-4.69 0-8.5-3.81-8.5-8.5 0-4.7 3.81-8.5 8.5-8.5h81.34c4.691 0 8.5 3.8 8.5 8.5 0 4.69-3.809 8.5-8.5 8.5h-11.019l36.701 60.83h13.239zm-273.9 77.03h-17.01v124.55h17.01zm117.9 9.739c0-3.85-1.648-7.32-4.289-9.74-2.35-2.15-5.481-3.47-8.91-3.47h-66.5c-3.43 0-6.56 1.32-8.91 3.47-2.641 2.42-4.289 5.89-4.289 9.74v73.36c0 7.29 5.91 13.2 13.199 13.2h66.5c7.291 0 13.199-5.91 13.199-13.2zm266.38 5.54 14.461 21.76c24.649 37.11 65.949 59.26 110.5 59.26h51.328l-10.658-16.05c-22.352-33.65-51.842-60.89-85.75-80.25-2.07-1.19-4.16-2.35-6.262-3.47h-63.559c-3.26 0-6.281 1.3-8.48 3.47-1.529 1.5-2.66 3.43-3.221 5.61-0.84 3.311-0.24 6.831 1.641 9.67zm-81.02 67.821c0 7.29 5.92 13.2 13.209 13.2h9.23c7.291 0 13.199-5.91 13.199-13.2v-73.36c0-3.85-1.648-7.32-4.289-9.74-2.35-2.15-5.48-3.47-8.91-3.47h-9.23c-3.439 0-6.57 1.32-8.92 3.47-2.639 2.42-4.289 5.89-4.289 9.74zm-155.15-86.571c-3.44 0-6.57 1.32-8.92 3.47-2.641 2.42-4.291 5.89-4.291 9.74v73.36c0 7.29 5.92 13.2 13.211 13.2h124.95c7.291 0 13.201-5.91 13.201-13.2v-73.36c0-3.85-1.65-7.32-4.291-9.74-2.35-2.15-5.479-3.47-8.91-3.47h-124.95zm55.99-134.39h-19.07l36.699 60.83h19.08z" fill="#047c45"/><path d="m171.86 692.26c-8.283 0-15-6.716-15-15s6.717-15 15-15h660.91c8.285 0 15 6.716 15 15s-6.715 15-15 15z" fill="#047c45"/></svg>
